<?xml version="1.0" encoding="UTF-8" standalone="no"?>
<!-- Created with Inkscape (http://www.inkscape.org/) -->

<svg
   version="1.1"
   id="svg2"
   width="768"
   height="782.22266"
   viewBox="0 0 768 782.22266"
   xmlns="http://www.w3.org/2000/svg"
   xmlns:svg="http://www.w3.org/2000/svg">
  <defs
     id="defs6" />
  <g
     id="g8"
     transform="matrix(1.3333333,0,0,-1.3333333,0,782.22267)">
    <g
       id="g10"
       transform="translate(400.6154,423.529)">
      <path
         d="m 0,0 104.944,-107.234 -99.322,-98.905 -0.208,52.055 46.954,47.058 -80.061,80.79 z"
         style="fill:#f03c51;fill-opacity:1;fill-rule:nonzero;stroke:none"
         id="path12" />
    </g>
    <g
       id="g14"
       transform="translate(360.6368,386.2574)">
      <path
         d="M 0,0 32.795,-31.858 33.107,-182.714 0,-214.572 Z"
         style="fill:#12110f;fill-opacity:1;fill-rule:nonzero;stroke:none"
         id="path16" />
    </g>
    <g
       id="g18"
       transform="translate(335.9626,364.0818)">
      <path
         d="M 0,0 -32.795,-29.359 V -249.866 L 0,-217.071 Z"
         style="fill:#12110f;fill-opacity:1;fill-rule:nonzero;stroke:none"
         id="path20" />
    </g>
    <g
       id="g22"
       transform="translate(245.6987,371.8901)">
      <path
         d="M 0,0 32.795,-31.233 33.107,-257.674 0,-224.567 Z"
         style="fill:#12110f;fill-opacity:1;fill-rule:nonzero;stroke:none"
         id="path24" />
    </g>
    <g
       id="g26"
       transform="translate(221.0245,386.2574)">
      <path
         d="M 0,0 -32.483,-32.483 V -182.714 L 0,-214.572 Z"
         style="fill:#12110f;fill-opacity:1;fill-rule:nonzero;stroke:none"
         id="path28" />
    </g>
    <g
       id="g30"
       transform="translate(176.0487,270.0699)">
      <path
         d="m 0,0 v -52.68 l -100.434,99.53 150.719,149.919 67.776,-66.839 105.256,94.012 -37.167,12.181 114.938,26.86 -46.85,-107.754 -6.871,38.417 -129.618,-116.5 -68.713,64.653 -94.324,-94.637 z"
         style="fill:#f03c51;fill-opacity:1;fill-rule:nonzero;stroke:none"
         id="path32" />
    </g>
    <g
       id="g34"
       transform="translate(291.182,530.9712)">
      <path
         d="M 0,0 59.668,-59.968 32.391,-85.163 0,-52.264 -27.785,-80.165 -54.229,-53.721 Z"
         style="fill:#f03c51;fill-opacity:1;fill-rule:nonzero;stroke:none"
         id="path36" />
    </g>
    <text
       xml:space="preserve"
       transform="matrix(1,0,0,-1,54.8218,38.4395)"
       style="font-variant:normal;font-weight:normal;font-stretch:normal;font-size:49px;font-family:'Droid Sans Arabic';-inkscape-font-specification:DroidSansArabic;writing-mode:lr-tb;fill:#231f20;fill-opacity:1;fill-rule:nonzero;stroke:none"
       id="text40"><tspan
         x="0 28.273001 52.234001 78.841003 106.967 121.716 134.407 147.147 163.464 176.155 193.452 222.901 239.61 279.79001 292.48099 305.22101 334.082 375.242 415.422 442.02899"
         y="0"
         id="tspan38">ةدﻮﺠﻟا راﺮﻘﺘﺳا ﺔﺴﺳﺆﻣ</tspan></text>
  </g>
</svg>
